<?xml version="1.0" standalone="no"?>
<!DOCTYPE svg PUBLIC "-//W3C//DTD SVG 20010904//EN"
 "http://www.w3.org/TR/2001/REC-SVG-20010904/DTD/svg10.dtd">
<svg version="1.0" xmlns="http://www.w3.org/2000/svg"
 width="512.000000pt" height="512.000000pt" viewBox="0 0 512.000000 512.000000"
 preserveAspectRatio="xMidYMid meet">
<metadata>
Created by potrace 1.11, written by Peter Selinger 2001-2013
</metadata>
<g transform="translate(0.000000,512.000000) scale(0.100000,-0.100000)"
fill="#000000" stroke="none">
<path d="M107 5013 c-4 -3 -7 -1108 -7 -2454 0 -1947 3 -2449 13 -2456 18 -12
4850 -15 4881 -3 l26 10 -2 2452 -3 2453 -2451 3 c-1348 1 -2454 -1 -2457 -5z
m1692 -252 c69 -22 225 -69 346 -104 327 -97 1121 -334 1400 -417 88 -26 232
-69 320 -95 88 -26 191 -56 228 -67 38 -11 71 -26 74 -34 4 -11 -123 -459
-212 -744 -13 -41 -38 -124 -55 -185 -18 -60 -54 -182 -80 -270 -44 -147 -159
-535 -182 -613 -5 -17 -16 -32 -24 -32 -8 0 -114 30 -237 66 -122 37 -232 69
-244 71 -19 5 -24 -3 -42 -63 -11 -38 -77 -260 -147 -494 -130 -439 -187 -632
-209 -710 -31 -109 -187 -631 -206 -688 -21 -64 -29 -70 -71 -52 -13 5 -162
50 -333 100 -170 51 -346 103 -390 116 -188 57 -381 115 -535 160 -91 26 -171
53 -178 59 -11 10 -2 51 52 231 74 247 190 641 326 1099 50 171 100 337 110
370 64 211 91 308 87 319 -3 7 -47 25 -98 40 -52 15 -143 43 -204 61 -60 19
-129 39 -152 45 -27 6 -43 17 -43 26 0 15 26 107 141 494 150 504 241 809 270
910 17 58 41 139 54 180 13 41 34 111 45 155 22 81 34 105 53 105 5 0 66 -18
136 -39z"/>
</g>
</svg>
